<svg xmlns="http://www.w3.org/2000/svg" width="30" height="30" viewBox="0 0 30 30">
  <g id="Group_7066" data-name="Group 7066" transform="translate(-1073 1251)">
    <g id="Group_4704" data-name="Group 4704" transform="translate(-200.748 -1298.748)">
      <g id="Group_4549" data-name="Group 4549" transform="translate(1273.748 47.748)">
        <g id="noun-cart-2954272" transform="translate(3 5)">
          <path id="Path_1570" data-name="Path 1570" d="M240.443,421.571a2.152,2.152,0,1,0-.63,1.519,2.149,2.149,0,0,0,.63-1.519Zm-3.236,0h0a1.088,1.088,0,1,1,.319.768A1.087,1.087,0,0,1,237.206,421.571Z" transform="translate(-229.28 -403.823)" stroke="#000" stroke-width="0.1"/>
          <path id="Path_1571" data-name="Path 1571" d="M497.016,421.575a2.152,2.152,0,1,0-.63,1.519,2.149,2.149,0,0,0,.63-1.519Zm-3.236,0a1.088,1.088,0,1,1,.319.768A1.087,1.087,0,0,1,493.78,421.575Z" transform="translate(-474.836 -403.827)" stroke="#000" stroke-width="0.1"/>
          <path id="Path_1572" data-name="Path 1572" d="M98.146,36.074H81.022l-.032-.211a2.28,2.28,0,0,0-.809-1.4,2.473,2.473,0,0,0-1.566-.559H75.476v1.062h3.139a1.332,1.332,0,0,1,.843.3,1.227,1.227,0,0,1,.436.753l1.822,11.01a1.83,1.83,0,0,0,.656,1.124,1.983,1.983,0,0,0,1.263.442h14.04V47.536H83.634a.836.836,0,0,1-.539-.18.772.772,0,0,1-.283-.475l-.326-1.955H94.331a2.489,2.489,0,0,0,1.4-.432,2.324,2.324,0,0,0,.877-1.125c0-.007,0-.019.007-.026l2.067-6.6a.5.5,0,0,0-.086-.463.558.558,0,0,0-.445-.208Zm-2.6,6.963a1.248,1.248,0,0,1-.473.6,1.338,1.338,0,0,1-.747.228H82.31L81.2,37.137H97.4Z" transform="translate(-75.476 -33.906)" stroke="#000" stroke-width="0.2"/>
        </g>
        <rect id="Rectangle_2204" data-name="Rectangle 2204" width="30" height="30" transform="translate(0 0)" fill="none"/>
      </g>
    </g>
  </g>
</svg>
