<?xml version="1.0" standalone="no"?>
<!DOCTYPE svg PUBLIC "-//W3C//DTD SVG 20010904//EN"
 "http://www.w3.org/TR/2001/REC-SVG-20010904/DTD/svg10.dtd">
<svg version="1.0" xmlns="http://www.w3.org/2000/svg"
 width="2261.000000pt" height="660.000000pt" viewBox="0 0 2261.000000 660.000000"
 preserveAspectRatio="xMidYMid meet">

<g transform="translate(0.000000,660.000000) scale(0.100000,-0.100000)"
fill="#000000" stroke="none">
<path d="M4 6583 c44 -119 1851 -4543 1855 -4543 3 0 251 544 550 1208 299
664 546 1210 550 1214 3 3 233 -489 511 -1095 651 -1421 610 -1335 620 -1317
9 17 1760 4519 1760 4526 0 2 -212 3 -470 2 l-471 -3 -435 -1025 c-240 -564
-439 -1028 -443 -1032 -4 -4 -249 444 -546 997 -296 553 -541 1002 -544 999
-3 -3 -238 -474 -522 -1047 -284 -573 -520 -1041 -524 -1040 -4 1 -217 490
-473 1087 l-466 1086 -479 0 c-452 0 -479 -1 -473 -17z"/>
<path d="M16297 6553 c-4 -3 -7 -984 -7 -2180 l0 -2173 455 0 455 0 0 2180 0
2180 -448 0 c-247 0 -452 -3 -455 -7z"/>
<path d="M17651 6509 c-149 -29 -240 -146 -229 -293 8 -101 63 -183 151 -228
50 -25 147 -34 204 -19 152 41 241 212 188 362 -31 88 -115 161 -198 174 -23
4 -49 8 -57 10 -8 1 -35 -1 -59 -6z m148 -68 c48 -25 95 -79 111 -126 7 -20
10 -65 8 -100 -5 -75 -37 -131 -100 -172 -36 -25 -51 -28 -119 -28 -70 0 -82
3 -121 30 -59 41 -98 119 -98 194 1 90 45 162 125 204 44 23 146 22 194 -2z"/>
<path d="M17592 6239 l3 -164 25 0 c24 0 25 3 28 68 3 63 4 67 27 67 19 0 33
-14 66 -70 33 -55 46 -70 65 -70 13 0 24 4 24 10 0 5 -18 37 -40 72 l-39 62
29 12 c54 23 67 93 26 140 -22 26 -29 28 -120 32 l-97 4 3 -163z m173 95 c16
-17 12 -53 -9 -66 -6 -4 -32 -8 -58 -8 l-48 0 0 45 0 45 49 0 c32 0 55 -6 66
-16z"/>
<path d="M14125 5735 c-332 -62 -597 -204 -827 -443 -197 -205 -320 -444 -385
-742 -28 -134 -26 -440 5 -579 52 -231 159 -459 290 -619 25 -31 33 -48 26
-57 -5 -7 -53 -64 -108 -126 -54 -63 -130 -154 -168 -203 -56 -72 -66 -92 -56
-101 7 -7 157 -127 334 -267 176 -140 328 -265 336 -277 15 -22 16 -21 61 41
129 181 328 316 544 370 122 31 341 31 458 -1 181 -48 377 -172 495 -313 73
-88 162 -263 192 -373 31 -118 31 -336 0 -458 -88 -352 -376 -630 -727 -702
-92 -19 -275 -21 -363 -5 -228 41 -451 180 -592 369 l-26 34 -296 -314 -297
-314 97 -98 c348 -353 734 -536 1172 -554 534 -22 1079 212 1437 616 441 499
582 1185 372 1815 -98 297 -249 529 -492 762 l-114 109 69 90 c80 104 174 288
218 425 105 322 91 692 -35 997 -20 49 -39 96 -42 106 -5 16 5 17 120 17 111
0 126 2 131 18 16 51 196 693 196 697 0 3 -285 5 -634 5 -549 0 -639 2 -677
16 -142 50 -240 66 -439 70 -144 2 -216 0 -275 -11z m443 -908 c191 -67 340
-225 398 -422 22 -76 22 -238 0 -325 -41 -159 -171 -322 -313 -393 -315 -156
-690 -32 -844 278 -154 310 -26 681 288 834 98 48 162 61 288 57 87 -2 125 -8
183 -29z"/>
<path d="M7155 5720 c-203 -37 -449 -151 -612 -286 l-33 -27 0 147 0 146 -432
-2 -433 -3 -3 -1712 -2 -1713 430 0 430 0 0 1053 0 1052 41 73 c47 85 148 196
234 258 150 106 362 180 552 191 l102 6 5 61 c3 34 8 215 12 402 5 276 3 343
-7 350 -19 11 -225 14 -284 4z"/>
<path d="M22270 5711 c-199 -44 -435 -158 -565 -272 l-34 -31 -3 144 -3 143
-430 0 -430 0 -3 -1712 -2 -1713 425 0 425 0 2 1053 3 1052 45 80 c140 246
454 424 783 442 l107 6 0 66 c1 36 5 217 10 401 5 191 5 339 0 344 -5 5 -62
10 -127 12 -89 3 -139 -1 -203 -15z"/>
<path d="M18830 5699 c-201 -21 -440 -89 -607 -172 -294 -148 -539 -394 -678
-682 -214 -442 -244 -1066 -75 -1575 212 -637 750 -1041 1480 -1111 431 -41
914 77 1225 299 103 74 275 256 275 291 0 7 -77 155 -172 328 l-172 317 -35
-45 c-72 -89 -158 -173 -236 -232 -102 -76 -274 -160 -401 -194 -91 -25 -115
-27 -294 -27 -174 -1 -204 2 -279 22 -99 27 -208 79 -269 129 -50 41 -103 128
-100 162 2 19 207 168 1062 772 583 412 1061 751 1063 753 2 2 -7 29 -21 61
-69 154 -221 356 -357 473 -41 35 -121 95 -177 133 -341 229 -807 341 -1232
298z m303 -734 c92 -24 175 -72 249 -144 37 -37 68 -72 68 -78 0 -6 -287 -212
-637 -457 l-638 -446 -9 27 c-5 16 -9 100 -9 188 0 132 3 173 21 237 90 327
343 588 647 668 87 23 230 25 308 5z"/>
<path d="M7855 5669 c-11 -16 -235 -692 -235 -706 0 -10 139 -13 685 -13 541
0 685 -3 685 -12 0 -22 -33 -483 -35 -485 -1 -2 -51 16 -110 38 -60 23 -159
53 -220 67 -99 24 -129 26 -310 27 -221 0 -279 -8 -443 -61 -265 -86 -485
-250 -627 -468 -244 -375 -245 -886 -2 -1259 325 -498 1034 -711 1541 -463 50
24 116 63 146 86 l55 41 3 -105 3 -106 379 0 380 0 0 1715 0 1715 -944 0
c-659 0 -947 -3 -951 -11z m715 -1884 c142 -38 270 -136 326 -250 25 -51 29
-72 29 -140 0 -71 -4 -89 -33 -147 -78 -159 -280 -268 -497 -268 -211 0 -410
106 -491 260 -26 50 -29 64 -29 155 0 92 2 104 30 154 70 127 221 225 389 252
67 10 208 3 276 -16z"/>
<path d="M9990 3965 l0 -1715 423 2 422 3 5 1045 c5 1043 5 1045 27 1098 71
174 218 295 409 338 109 24 264 16 357 -19 169 -65 273 -188 297 -352 6 -43
10 -463 10 -1102 l0 -1033 440 0 441 0 -4 1233 c-3 1218 -3 1233 -24 1318 -31
126 -83 257 -139 351 -56 95 -216 263 -305 321 -141 91 -306 154 -478 182
-149 25 -390 17 -522 -18 -187 -49 -342 -130 -447 -236 l-52 -52 0 176 0 175
-430 0 -430 0 0 -1715z"/>
</g>
</svg>
